# AST/ASF file generated using VICON BodyLanguage
# -----------------------------------------------
:version 1.10
:name VICON
:units
  mass 1.0
  length 0.45
  angle deg
:documentation
   .ast/.asf automatically generated from VICON data using
   VICON BodyBuilder and BodyLanguage model FoxedUp or BRILLIANT.MOD
:root
   order TX TY TZ RX RY RZ
   axis XYZ
   position 0 0 0  
   orientation 0 0 0 
:bonedata
  begin
     id 1 
     name lhipjoint
     direction 0.650112 -0.723553 0.232005 
     length 2.45805 
     axis 0 0 0  XYZ
  end
  begin
     id 2 
     name lfemur
     direction 0.34202 -0.939693 0  
     length 7.00073  
     axis 0 0 20  XYZ
    dof rx ry rz
    limits (-160.0 20.0)
           (-70.0 70.0)
           (-60.0 70.0)
  end
  begin
     id 3 
     name ltibia
     direction 0.34202 -0.939693 0   
     length 7.8748   
     axis 0 0 20   XYZ
    dof rx
    limits (-10.0 170.0)
  end
  begin
     id 4 
     name lfoot
     direction 0.0542825 -0.14914 0.987325   
     length 1.75978   
     axis -90 7.62852e-016 20   XYZ
    dof rx rz
    limits (-45.0 90.0)
           (-70.0 20.0)
  end
  begin
     id 5 
     name ltoes
     direction 1.53509e-011 -4.21906e-011 1   
     length 0.893912   
     axis -90 7.62852e-016 20   XYZ
    dof rx
    limits (-90.0 20.0)
  end
  begin
     id 6 
     name rhipjoint
     direction -0.637897 -0.733345 0.235145   
     length 2.42522  
     axis 0 0 0  XYZ 
  end
  begin
     id 7 
     name rfemur
     direction -0.34202 -0.939693 0   
     length 7.02549   
     axis 0 0 -20   XYZ
    dof rx ry rz
    limits (-160.0 20.0)
           (-70.0 70.0)
           (-70.0 60.0)
  end
  begin
     id 8 
     name rtibia
     direction -0.34202 -0.939693 0   
     length 7.71512   
     axis 0 0 -20   XYZ
    dof rx
    limits (-10.0 170.0)
 end
 begin
     id 9 
     name rfoot
     direction -0.0822618 -0.226012 0.970645   
     length 1.90014  
     axis -90 -7.62852e-016 -20   XYZ
    dof rx rz
    limits (-45.0 90.0)
           (-20.0 70.0)
  end
  begin
     id 10 
     name rtoes
     direction -1.53542e-011 -4.21872e-011 1   
     length 0.957341   
     axis -90 -7.62852e-016 -20   XYZ
    dof rx
    limits (-90.0 20.0)
  end
  begin
     id 11 
     name lowerback
     direction -0.0022947 0.999774 -0.0211557   
     length 1.89909   
     axis 0 0 0   XYZ
    dof rx ry rz
    limits (-20.0 45.0)
           (-30.0 30.0)
           (-30.0 30.0)
  end
  begin
     id 12 
     name upperback
     direction 0.0107737 0.998635 0.0511027   
     length 1.8853   
     axis 0 0 0   XYZ
    dof rx ry rz
    limits (-20.0 45.0)
           (-30.0 30.0)
           (-30.0 30.0)
  end
  begin
     id 13 
     name thorax
     direction 0.011824 0.998136 0.0598754   
     length 1.88911   
     axis 0 0 0   XYZ
    dof rx ry rz
    limits (-20.0 45.0)
           (-30.0 30.0)
           (-30.0 30.0)
  end
  begin
     id 14 
     name lowerneck
     direction -0.0685355 0.990319 0.120714   
     length 1.91222   
     axis 0 0 0   XYZ
    dof rx ry rz
    limits (-20.0 45.0)
           (-30.0 30.0)
           (-30.0 30.0)
  end
  begin
     id 15 
     name upperneck
     direction 0.0886204 0.955665 -0.280805   
     length 1.92526   
     axis 0 0 0   XYZ
    dof rx ry rz
    limits (-20.0 45.0)
           (-30.0 30.0)
           (-30.0 30.0)
  end
  begin
     id 16
     name head
     direction 0.0233423 0.993502 -0.111393  
     length 1.96056  
     axis 0 0 0   XYZ
    dof rx ry rz
    limits (-20.0 45.0)
           (-30.0 30.0)
           (-30.0 30.0)
  end
  begin
     id 17 
     name lclavicle
     direction 0.941873 0.32922 0.0670041  
     length 3.31705  
     axis 0 0 0   XYZ
    dof ry rz
    limits (-20.0 10.0)
           (0.0 20.0)
  end
  begin
     id 18 
     name lhumerus
     direction 1 -4.4898e-011 3.38707e-028   
     length 5.29277   
     axis 180 -30 -90   XYZ
    dof rx ry rz
    limits (-60.0 90.0)
           (-90.0 90.0)
           (-90.0 90.0)
  end
  begin
     id 19
     name lradius
     direction 1 -4.48952e-011 1.63213e-028   
     length 2.85226   
     axis 180 -30 -90   XYZ
    dof rx
    limits (-10.0 170.0)
  end
  begin
     id 20
     name lwrist
     direction 1 -4.49001e-011 1.27856e-027   
     length 1.42613   
     axis -1.61767e-015 90 90   XYZ
    dof ry
    limits (-180.0 0.0)
 end
  begin
     id 21 
     name lhand
     direction 1 -4.48976e-011 2.55931e-027   
     length 0.602097   
     axis -1.63363e-015 90 90   XYZ
    dof rx rz
    limits (-90.0 90.0)
           (-45.0 45.0)
  end
  begin
     id 22 
     name lfingers
     direction 1 -4.48986e-011 5.11684e-027   
     length 0.485426   
     axis -3.26723e-015 90 90   XYZ
    dof rx
    limits (0.0 90.0)
  end
  begin
     id 23
     name lthumb
     direction 0.707107 -6.34915e-011 0.707107   
     length 0.696978   
     axis -90 45 -2.25915e-014   XYZ
    dof rx rz
    limits (-45.0 45.0)
           (-45.0 45.0)
  end
  begin
     id 24 
     name rclavicle
     direction -0.939974 0.327078 0.0973096   
     length 3.10337  
     axis 0 0 0   XYZ 
    dof ry rz
    limits (-10.0 20.0)
           (-20.0 0.0)
  end
  begin
     id 25 
     name rhumerus
     direction -1 -4.48975e-011 1.83745e-027  
     length 5.13304   
     axis 180 30 90   XYZ
    dof rx ry rz
    limits (-90.0 60.0)
           (-90.0 90.0)
           (-90.0 90.0)
  end
  begin
     id 26 
     name rradius
     direction -1 -4.48977e-011 7.1775e-029   
     length 2.74305   
     axis 180 30 90   XYZ
    dof rx
    limits (-10.0 170.0)
  end
  begin
     id 27 
     name rwrist
     direction -1 -4.48977e-011 1.27963e-027   
     length 1.37152   
     axis -1.61767e-015 -90 -90   XYZ
    dof ry
    limits (-180.0 0.0)
  end
  begin
     id 28
     name rhand
     direction -1 -4.4888e-011 2.56782e-027   
     length 0.767976   
     axis -1.63363e-015 -90 -90   XYZ
    dof rx rz
    limits (-90.0 90.0)
           (-45.0 45.0)
  end
  begin
     id 29
     name rfingers
     direction -1 -4.48947e-011 5.12384e-027   
     length 0.619162   
     axis -3.26723e-015 -90 -90   XYZ
    dof rx
    limits (0.0 90.0)
  end
  begin
     id 30
     name rthumb
     direction -0.707107 -6.34857e-011 0.707107   
     length 0.888997   
     axis -90 -45 2.25915e-014   XYZ
    dof rx rz
    limits (-45.0 45.0)
           (-45.0 45.0)
  end
:hierarchy
  begin
    root lhipjoint rhipjoint lowerback
    lhipjoint lfemur
    lfemur ltibia
    ltibia lfoot
    lfoot ltoes
    rhipjoint rfemur
    rfemur rtibia
    rtibia rfoot
    rfoot rtoes
    lowerback upperback
    upperback thorax
    thorax lowerneck lclavicle rclavicle
    lowerneck upperneck
    upperneck head
    lclavicle lhumerus
    lhumerus lradius
    lradius lwrist
    lwrist lhand lthumb
    lhand lfingers
    rclavicle rhumerus
    rhumerus rradius
    rradius rwrist
    rwrist rhand rthumb
    rhand rfingers
  end

#!OML:ASF F:\VICON\USERDATA\INSTALL\rory3\rory3.ASF
:FULLY-SPECIFIED
:DEGREES
107
root 0.0530084 16.5144 -0.0869427 -5.21207 5.61027 -0.462293
lowerback 2.20645 0.0309862 -1.11803
upperback 4.22149 -0.0137123 2.44202
thorax 3.10702 -0.0824701 3.14427
lowerneck -15.7871 -12.5126 -16.9765
upperneck 23.8783 -17.1152 13.6783
head 13.4301 -7.65517 4.99004
rclavicle 1.71452e-014 1.35174e-014
rhumerus 23.8859 22.0963 -4.283
rradius 134.654
rwrist -24.2404
rhand 22.9537 20.6242
rfingers 7.12502
rthumb 47.2761 -1.91944
lclavicle 1.71452e-014 1.35174e-014
lhumerus 17.6326 -27.0091 11.8021
lradius 126.147
lwrist 44.9774
lhand 18.8321 18.1686
lfingers 7.12502
lthumb 43.4455 42.2552
rfemur -5.59175 -1.11185 18.7804
rtibia 39.3968
rfoot -28.7022 -9.29821
rtoes -21.6714
lfemur -9.15024 -5.7561 -18.3249
ltibia 41.7165
lfoot -25.4134 -0.915482
ltoes -18.3223
108
root 0.0510011 16.4709 -0.0921677 -5.80759 5.5531 -0.29872
lowerback 2.3181 0.0386467 -1.46745
upperback 4.85908 -0.0131483 2.50879
thorax 3.70973 -0.10935 3.41513
lowerneck -15.976 -12.549 -16.9462
upperneck 23.6877 -17.1666 13.8463
head 13.4173 -7.64795 5.02714
rclavicle -2.03754e-015 1.82882e-014
rhumerus 22.4669 21.0791 -8.28758
rradius 135.238
rwrist -25.7416
rhand 23.7823 19.9354
rfingers 7.12502
rthumb 48.0408 -2.25834
lclavicle -2.03754e-015 1.82882e-014
lhumerus 15.133 -25.9947 17.1485
lradius 127.234
lwrist 46.141
lhand 19.7263 18.4817
lfingers 7.12502
lthumb 44.28 42.2593
rfemur -5.40353 -1.48715 18.4738
rtibia 40.2971
rfoot -29.2446 -8.92744
rtoes -21.2514
lfemur -8.7937 -5.49963 -18.5295
ltibia 42.3942
lfoot -25.765 -0.780945
ltoes -19.2526
109
root 0.047577 16.426 -0.0996012 -6.35255 5.50855 0.00353666
lowerback 2.47602 0.024394 -1.95479
upperback 5.44244 -0.038256 2.51454
thorax 4.23604 -0.155758 3.70062
lowerneck -16.1952 -12.5694 -16.8743
upperneck 23.6283 -17.1972 13.9375
head 13.4473 -7.63369 5.03403
rclavicle 1.10822e-014 -2.62396e-014
rhumerus 21.1677 20.1671 -12.3188
rradius 135.779
rwrist -27.1306
rhand 24.4898 19.1587
rfingers 7.12502
rthumb 48.6923 -2.72451
lclavicle 1.10822e-014 -2.62396e-014
lhumerus 12.6503 -24.9172 22.1939
lradius 128.34
lwrist 47.1789
lhand 20.386 18.7786
lfingers 7.12502
lthumb 44.8945 42.3196
rfemur -5.27831 -1.83626 18.0137
rtibia 41.2241
rfoot -29.7662 -8.61054
rtoes -20.9657
lfemur -8.51286 -5.24632 -18.8727
ltibia 43.0791
lfoot -26.1222 -0.850806
ltoes -19.3964
110
root 0.0423392 16.3802 -0.110301 -6.93878 5.45431 0.149179
lowerback 2.74047 0.0155314 -2.33237
upperback 6.0109 -0.0585834 2.58523
thorax 4.69013 -0.199694 3.99226
lowerneck -16.4185 -12.5915 -16.8119
upperneck 23.5961 -17.2321 14.0301
head 13.4914 -7.6213 5.04261
rclavicle 4.17448e-015 -1.03368e-014
rhumerus 19.8439 19.1847 -16.3244
rradius 136.427
rwrist -28.3578
rhand 25.0933 18.5368
rfingers 7.12502
rthumb 49.2468 -3.07257
lclavicle 4.17448e-015 -1.03368e-014
lhumerus 10.4005 -23.6727 27.0389
lradius 129.319
lwrist 47.8184
lhand 21.0901 18.9745
lfingers 7.12502
lthumb 45.5492 42.2545
rfemur -5.13843 -2.09368 17.7688
rtibia 42.1582
rfoot -30.1979 -8.50787
rtoes -21.1933
lfemur -8.24535 -4.97696 -19.0218
ltibia 43.8029
lfoot -26.4391 -0.960379
ltoes -19.7537
111
root 0.0374365 16.3324 -0.124794 -7.56811 5.47878 0.233279
lowerback 3.1049 -0.0279509 -2.65905
upperback 6.54252 -0.127003 2.65689
thorax 5.05671 -0.266585 4.25578
lowerneck -16.5631 -12.5621 -16.6236
upperneck 23.5628 -17.2063 14.0155
head 13.4803 -7.58771 5.00635
rclavicle 4.77083e-015 -4.77083e-015
rhumerus 18.4942 18.1263 -20.4182
rradius 137.002
rwrist -29.1514
rhand 25.7716 18.5453
rfingers 7.12502
rthumb 49.8687 -2.74608
lclavicle 4.77083e-015 -4.77083e-015
lhumerus 8.23291 -22.3029 31.6763
lradius 130.237
lwrist 48.1113
lhand 21.5892 18.967
lfingers 7.12502
lthumb 46.0126 42.0563
rfemur -4.95024 -2.36146 17.5822
rtibia 43.0835
rfoot -30.6502 -8.32419
rtoes -20.9961
lfemur -7.97993 -4.82969 -19.1168
ltibia 44.5533
lfoot -26.6881 -1.05163
ltoes -19.3297
112
root 0.0359168 16.2801 -0.139664 -8.25117 5.5361 0.231919
lowerback 3.50844 -0.110097 -2.85409
upperback 7.06931 -0.24854 2.71621
thorax 5.40374 -0.355067 4.43182
lowerneck -16.5963 -12.4947 -16.3723
upperneck 23.4743 -17.1472 13.9839
head 13.4085 -7.543 4.9648
rclavicle 4.67144e-015 -3.26007e-014
rhumerus 17.1992 17.1841 -24.4989
rradius 137.56
rwrist -29.7154
rhand 26.1872 18.6966
rfingers 7.12502
rthumb 50.2488 -2.39445
lclavicle 4.67144e-015 -3.26007e-014
lhumerus 6.0429 -20.9568 36.0745
lradius 131.213
lwrist 48.3992
lhand 21.4203 18.8819
lfingers 7.12502
lthumb 45.8559 42.0362
rfemur -4.66432 -2.6666 17.4559
rtibia 43.9553
rfoot -31.0829 -8.20586
rtoes -21.0779
lfemur -7.67441 -4.74496 -19.1442
ltibia 45.3273
lfoot -26.939 -1.27572
ltoes -18.3186
113
root 0.0363838 16.2286 -0.152549 -8.90097 5.56633 0.279694
lowerback 3.94067 -0.20486 -3.03735
upperback 7.53778 -0.386653 2.73517
thorax 5.67713 -0.449013 4.5587
lowerneck -16.6317 -12.4423 -16.2344
upperneck 23.4733 -17.1188 14.0365
head 13.4019 -7.51108 4.96976
rclavicle -6.95746e-016 -1.82882e-014
rhumerus 16.0134 16.407 -28.449
rradius 138.163
rwrist -30.2125
rhand 26.4568 18.6789
rfingers 7.12502
rthumb 50.4952 -2.27994
lclavicle -6.95746e-016 -1.82882e-014
lhumerus 3.89198 -19.6585 40.1409
lradius 132.125
lwrist 48.5781
lhand 21.4468 18.724
lfingers 7.12502
lthumb 45.8804 41.8682
rfemur -4.40046 -2.91494 17.27
rtibia 44.7908
rfoot -31.4953 -8.12458
rtoes -21.6141
lfemur -7.38345 -4.63648 -19.2387
ltibia 46.0927
lfoot -27.2667 -1.36849
ltoes -18.2785
114
root 0.0381027 16.183 -0.162 -9.51481 5.53773 0.268191
lowerback 4.3308 -0.259287 -3.01503
upperback 8.00224 -0.466899 2.6897
thorax 5.96176 -0.500809 4.502
lowerneck -16.7804 -12.4684 -16.1778
upperneck 23.5985 -17.223 14.2045
head 13.5191 -7.52301 5.00185
rclavicle -1.93815e-014 -1.51076e-014
rhumerus 14.7746 15.5546 -32.2877
rradius 138.88
rwrist -30.5415
rhand 26.5021 18.3341
rfingers 7.12502
rthumb 50.5366 -2.60229
lclavicle -1.93815e-014 -1.51076e-014
lhumerus 2.12566 -18.4366 43.7489
lradius 133.027
lwrist 48.6691
lhand 21.8041 18.6918
lfingers 7.12502
lthumb 46.2118 41.6976
rfemur -4.15311 -3.08077 17.1659
rtibia 45.5798
rfoot -31.9268 -8.0073
rtoes -21.7615
lfemur -7.12482 -4.4741 -19.2587
ltibia 46.8416
lfoot -27.6281 -1.19546
ltoes -19.2445
115
root 0.0404971 16.1378 -0.169551 -10.0637 5.4792 0.28066
lowerback 4.65635 -0.284495 -2.95565
upperback 8.42329 -0.503969 2.59799
thorax 6.23198 -0.525538 4.37546
lowerneck -16.8714 -12.4728 -16.0686
upperneck 23.7721 -17.3524 14.4443
head 13.6538 -7.53534 5.05362
rclavicle 3.08116e-015 -1.98785e-014
rhumerus 13.3374 14.7976 -35.8348
rradius 139.626
rwrist -30.8262
rhand 26.1081 17.9146
rfingers 7.12502
rthumb 50.1765 -3.2149
lclavicle 3.08116e-015 -1.98785e-014
lhumerus 0.466189 -17.4375 46.951
lradius 134.023
lwrist 48.8872
lhand 22.0477 18.5713
lfingers 7.12502
lthumb 46.4377 41.4813
rfemur -3.95974 -3.2181 17.0384
rtibia 46.3322
rfoot -32.3028 -7.86709
rtoes -21.6661
lfemur -6.91985 -4.3131 -19.2995
ltibia 47.5753
lfoot -28.0301 -0.865504
ltoes -20.7576
